<mxfile host="app.diagrams.net" modified="2023-03-08T07:28:36.279Z" agent="5.0 (Windows NT 10.0; Win64; x64) AppleWebKit/537.36 (KHTML, like Gecko) Chrome/109.0.0.0 Safari/537.36" etag="icxYy_FrlyTtacsOAKJv" version="21.0.2" type="github">
  <diagram name="第 1 页" id="dMqA_RpK7QFbefzwy14I">
    <mxGraphModel dx="1434" dy="796" grid="0" gridSize="10" guides="1" tooltips="1" connect="1" arrows="1" fold="1" page="1" pageScale="1" pageWidth="3300" pageHeight="4681" math="0" shadow="0">
      <root>
        <mxCell id="0" />
        <mxCell id="1" parent="0" />
        <mxCell id="349-MrV01duQZLHnrxhc-3" value="Radar Driver" style="rounded=0;whiteSpace=wrap;html=1;fontSize=20;fillColor=#54C0FF;" parent="1" vertex="1">
          <mxGeometry x="227" y="132" width="132" height="68" as="geometry" />
        </mxCell>
        <mxCell id="349-MrV01duQZLHnrxhc-4" value="IMU" style="rounded=0;whiteSpace=wrap;html=1;fontSize=20;fillColor=#54C0FF;" parent="1" vertex="1">
          <mxGeometry x="227" y="414" width="132" height="68" as="geometry" />
        </mxCell>
        <mxCell id="349-MrV01duQZLHnrxhc-5" value="Radar Driver" style="rounded=0;whiteSpace=wrap;html=1;fontSize=20;fillColor=#54C0FF;" parent="1" vertex="1">
          <mxGeometry x="761" y="124.5" width="174" height="71" as="geometry" />
        </mxCell>
        <mxCell id="349-MrV01duQZLHnrxhc-7" value="FSM" style="rounded=0;whiteSpace=wrap;html=1;fontSize=20;fillColor=#54C0FF;" parent="1" vertex="1">
          <mxGeometry x="761" y="413" width="172" height="70" as="geometry" />
        </mxCell>
        <mxCell id="349-MrV01duQZLHnrxhc-8" value="" style="line;strokeWidth=3;fillColor=none;align=left;verticalAlign=middle;spacingTop=-1;spacingLeft=3;spacingRight=3;rotatable=0;labelPosition=right;points=[];portConstraint=eastwest;fontSize=20;" parent="1" vertex="1">
          <mxGeometry x="359" y="165.5" width="151" height="8" as="geometry" />
        </mxCell>
        <mxCell id="349-MrV01duQZLHnrxhc-9" value="" style="line;strokeWidth=3;fillColor=none;align=left;verticalAlign=middle;spacingTop=-1;spacingLeft=3;spacingRight=3;rotatable=0;labelPosition=right;points=[];portConstraint=eastwest;fontSize=20;" parent="1" vertex="1">
          <mxGeometry x="359" y="444" width="151" height="8" as="geometry" />
        </mxCell>
        <mxCell id="349-MrV01duQZLHnrxhc-10" value="&lt;font style=&quot;font-size: 15px&quot;&gt;1:&lt;/font&gt;" style="text;html=1;align=center;verticalAlign=middle;resizable=0;points=[];autosize=1;strokeColor=none;fillColor=none;fontSize=20;" parent="1" vertex="1">
          <mxGeometry x="408" y="135.5" width="23" height="30" as="geometry" />
        </mxCell>
        <mxCell id="349-MrV01duQZLHnrxhc-11" value="&lt;font style=&quot;font-size: 15px&quot;&gt;3:&lt;/font&gt;" style="text;html=1;align=center;verticalAlign=middle;resizable=0;points=[];autosize=1;strokeColor=none;fillColor=none;fontSize=20;" parent="1" vertex="1">
          <mxGeometry x="401" y="404" width="31" height="36" as="geometry" />
        </mxCell>
        <mxCell id="349-MrV01duQZLHnrxhc-12" value="" style="endArrow=block;html=1;fontSize=15;endFill=1;strokeWidth=3;rounded=0;jumpStyle=none;targetPerimeterSpacing=0;" parent="1" edge="1">
          <mxGeometry width="50" height="50" relative="1" as="geometry">
            <mxPoint x="410.25" y="183" as="sourcePoint" />
            <mxPoint x="431" y="183" as="targetPoint" />
          </mxGeometry>
        </mxCell>
        <mxCell id="349-MrV01duQZLHnrxhc-13" value="" style="endArrow=block;html=1;fontSize=15;endFill=1;strokeWidth=3;rounded=0;jumpStyle=none;targetPerimeterSpacing=0;" parent="1" edge="1">
          <mxGeometry width="50" height="50" relative="1" as="geometry">
            <mxPoint x="408" y="471" as="sourcePoint" />
            <mxPoint x="428.75" y="471" as="targetPoint" />
          </mxGeometry>
        </mxCell>
        <mxCell id="349-MrV01duQZLHnrxhc-14" value="" style="line;strokeWidth=3;fillColor=none;align=left;verticalAlign=middle;spacingTop=-1;spacingLeft=3;spacingRight=3;rotatable=0;labelPosition=right;points=[];portConstraint=eastwest;fontSize=20;" parent="1" vertex="1">
          <mxGeometry x="638" y="157.5" width="122" height="8" as="geometry" />
        </mxCell>
        <mxCell id="349-MrV01duQZLHnrxhc-15" value="" style="line;strokeWidth=3;fillColor=none;align=left;verticalAlign=middle;spacingTop=-1;spacingLeft=3;spacingRight=3;rotatable=0;labelPosition=right;points=[];portConstraint=eastwest;fontSize=20;" parent="1" vertex="1">
          <mxGeometry x="638" y="301.5" width="123" height="8" as="geometry" />
        </mxCell>
        <mxCell id="349-MrV01duQZLHnrxhc-16" value="" style="line;strokeWidth=3;fillColor=none;align=left;verticalAlign=middle;spacingTop=-1;spacingLeft=3;spacingRight=3;rotatable=0;labelPosition=right;points=[];portConstraint=eastwest;fontSize=20;" parent="1" vertex="1">
          <mxGeometry x="638" y="444" width="123" height="8" as="geometry" />
        </mxCell>
        <mxCell id="349-MrV01duQZLHnrxhc-17" value="&lt;font style=&quot;font-size: 15px&quot;&gt;4:&lt;/font&gt;" style="text;html=1;align=center;verticalAlign=middle;resizable=0;points=[];autosize=1;strokeColor=none;fillColor=none;fontSize=20;" parent="1" vertex="1">
          <mxGeometry x="677" y="124.5" width="31" height="36" as="geometry" />
        </mxCell>
        <mxCell id="349-MrV01duQZLHnrxhc-18" value="&lt;font style=&quot;font-size: 15px&quot;&gt;5:&lt;/font&gt;" style="text;html=1;align=center;verticalAlign=middle;resizable=0;points=[];autosize=1;strokeColor=none;fillColor=none;fontSize=20;" parent="1" vertex="1">
          <mxGeometry x="680" y="255" width="31" height="36" as="geometry" />
        </mxCell>
        <mxCell id="349-MrV01duQZLHnrxhc-19" value="&lt;span style=&quot;color: rgb(0 , 0 , 0) ; font-family: &amp;quot;helvetica&amp;quot; ; font-size: 15px ; font-style: normal ; font-weight: 400 ; letter-spacing: normal ; text-align: center ; text-indent: 0px ; text-transform: none ; word-spacing: 0px ; background-color: rgb(248 , 249 , 250) ; display: inline ; float: none&quot;&gt;6:&lt;/span&gt;" style="text;whiteSpace=wrap;html=1;fontSize=15;" parent="1" vertex="1">
          <mxGeometry x="683.9999755859375" y="412.99998779296874" width="33" height="32" as="geometry" />
        </mxCell>
        <mxCell id="349-MrV01duQZLHnrxhc-20" value="" style="endArrow=block;html=1;fontSize=15;endFill=1;strokeWidth=3;rounded=0;jumpStyle=none;targetPerimeterSpacing=0;" parent="1" edge="1">
          <mxGeometry width="50" height="50" relative="1" as="geometry">
            <mxPoint x="683.2500000000001" y="174" as="sourcePoint" />
            <mxPoint x="704.0000000000001" y="174" as="targetPoint" />
          </mxGeometry>
        </mxCell>
        <mxCell id="349-MrV01duQZLHnrxhc-21" value="" style="endArrow=block;html=1;fontSize=15;endFill=1;strokeWidth=3;rounded=0;jumpStyle=none;targetPerimeterSpacing=0;" parent="1" edge="1">
          <mxGeometry width="50" height="50" relative="1" as="geometry">
            <mxPoint x="688.2500000000001" y="318" as="sourcePoint" />
            <mxPoint x="709.0000000000001" y="318" as="targetPoint" />
            <Array as="points">
              <mxPoint x="696.13" y="318.5" />
            </Array>
          </mxGeometry>
        </mxCell>
        <mxCell id="349-MrV01duQZLHnrxhc-22" value="" style="endArrow=block;html=1;fontSize=15;endFill=1;strokeWidth=3;rounded=0;jumpStyle=none;targetPerimeterSpacing=0;" parent="1" edge="1">
          <mxGeometry width="50" height="50" relative="1" as="geometry">
            <mxPoint x="682.1300000000001" y="467" as="sourcePoint" />
            <mxPoint x="702.8800000000001" y="467" as="targetPoint" />
            <Array as="points">
              <mxPoint x="690.01" y="467.5" />
            </Array>
          </mxGeometry>
        </mxCell>
        <mxCell id="349-MrV01duQZLHnrxhc-34" value="Vehicle" style="rounded=0;whiteSpace=wrap;html=1;fontSize=20;fillColor=#54C0FF;" parent="1" vertex="1">
          <mxGeometry x="224" y="273" width="132" height="68" as="geometry" />
        </mxCell>
        <mxCell id="349-MrV01duQZLHnrxhc-35" value="" style="line;strokeWidth=3;fillColor=none;align=left;verticalAlign=middle;spacingTop=-1;spacingLeft=3;spacingRight=3;rotatable=0;labelPosition=right;points=[];portConstraint=eastwest;fontSize=20;" parent="1" vertex="1">
          <mxGeometry x="356" y="301.5" width="151" height="8" as="geometry" />
        </mxCell>
        <mxCell id="349-MrV01duQZLHnrxhc-36" value="&lt;font style=&quot;font-size: 15px&quot;&gt;2:&lt;/font&gt;" style="text;html=1;align=center;verticalAlign=middle;resizable=0;points=[];autosize=1;strokeColor=none;fillColor=none;fontSize=20;" parent="1" vertex="1">
          <mxGeometry x="409" y="258" width="23" height="30" as="geometry" />
        </mxCell>
        <mxCell id="349-MrV01duQZLHnrxhc-37" value="" style="endArrow=block;html=1;fontSize=15;endFill=1;strokeWidth=3;rounded=0;jumpStyle=none;targetPerimeterSpacing=0;" parent="1" edge="1">
          <mxGeometry width="50" height="50" relative="1" as="geometry">
            <mxPoint x="411.12" y="323" as="sourcePoint" />
            <mxPoint x="431.87" y="323" as="targetPoint" />
          </mxGeometry>
        </mxCell>
        <mxCell id="349-MrV01duQZLHnrxhc-38" value="Perception Radar" style="rounded=0;whiteSpace=wrap;html=1;fontSize=20;fillColor=#54C0FF;" parent="1" vertex="1">
          <mxGeometry x="761" y="270" width="174" height="71" as="geometry" />
        </mxCell>
        <mxCell id="349-MrV01duQZLHnrxhc-2" value="&lt;font style=&quot;font-size: 20px&quot;&gt;Driver_Radar&lt;/font&gt;" style="rounded=0;whiteSpace=wrap;html=1;fillColor=#54C0FF;" parent="1" vertex="1">
          <mxGeometry x="510" y="126" width="127" height="376" as="geometry" />
        </mxCell>
      </root>
    </mxGraphModel>
  </diagram>
</mxfile>
